<?xml version="1.0" encoding="UTF-8" standalone="no"?>
<!DOCTYPE svg PUBLIC "-//W3C//DTD SVG 1.1//EN" "http://www.w3.org/Graphics/SVG/1.1/DTD/svg11.dtd">
<svg version="1.1" xmlns="http://www.w3.org/2000/svg" xmlns:xlink="http://www.w3.org/1999/xlink" preserveAspectRatio="xMidYMid meet" viewBox="0 0 640 640" width="640" height="640"><defs><path d="M639.53 519.83L639.16 522.38L638.7 524.9L638.14 527.38L637.49 529.82L636.74 532.23L635.9 534.59L634.97 536.91L633.96 539.19L632.86 541.41L631.67 543.59L630.41 545.71L629.07 547.78L627.65 549.8L626.16 551.75L624.59 553.65L622.96 555.48L621.25 557.25L619.48 558.96L617.65 560.59L615.75 562.16L613.8 563.65L611.78 565.07L609.71 566.41L607.59 567.67L605.41 568.86L603.19 569.96L600.91 570.97L598.59 571.9L596.23 572.74L593.82 573.49L591.38 574.14L588.9 574.7L586.38 575.16L583.83 575.53L581.25 575.79L578.64 575.95L576 576L64 576L61.36 575.95L58.75 575.79L56.17 575.53L53.62 575.16L51.1 574.7L48.62 574.14L46.18 573.49L43.77 572.74L41.41 571.9L39.09 570.97L36.81 569.96L34.59 568.86L32.41 567.67L30.29 566.41L28.22 565.07L26.2 563.65L24.25 562.16L22.35 560.59L20.52 558.96L18.75 557.25L17.04 555.48L15.41 553.65L13.84 551.75L12.35 549.8L10.93 547.78L9.59 545.71L8.33 543.59L7.14 541.41L6.04 539.19L5.03 536.91L4.1 534.59L3.26 532.23L2.51 529.82L1.86 527.38L1.3 524.9L0.84 522.38L0.47 519.83L0.21 517.25L0.05 514.64L0 512L203.84 355.2L320 448L436.16 355.2L640 512L639.95 514.64L639.79 517.25L639.53 519.83ZM0 448L0 192L163.84 323.2L0 448ZM476.16 323.2L640 192L640 448L476.16 323.2ZM0.48 120.2L0.84 117.65L1.31 115.14L1.87 112.67L2.53 110.23L3.28 107.83L4.12 105.47L5.05 103.15L6.07 100.88L7.17 98.65L8.36 96.48L9.62 94.35L10.97 92.28L12.39 90.27L13.89 88.31L15.45 86.41L17.09 84.57L18.8 82.8L20.57 81.09L22.41 79.45L24.31 77.89L26.27 76.39L28.28 74.97L30.35 73.62L32.48 72.36L34.65 71.17L36.88 70.07L39.15 69.05L41.47 68.12L43.83 67.28L46.23 66.53L48.67 65.87L51.14 65.31L53.65 64.84L56.2 64.48L58.77 64.21L61.37 64.05L64 64L576 64L579.16 65.44L582.24 66.88L585.24 68.34L588.16 69.8L591 71.27L593.76 72.75L596.44 74.23L599.04 75.73L601.56 77.23L604 78.75L606.36 80.27L608.64 81.79L610.84 83.33L612.96 84.88L615 86.43L616.96 87.99L618.84 89.56L620.64 91.14L622.36 92.73L624 94.33L625.56 95.93L627.04 97.54L628.44 99.16L629.76 100.79L631 102.43L632.16 104.08L633.24 105.73L634.24 107.39L635.16 109.07L636 110.75L636.76 112.43L637.44 114.13L638.04 115.83L638.56 117.55L639 119.27L639.36 121L639.64 122.74L639.84 124.48L639.96 126.24L640 128L320 384L0 128L0.05 125.37L0.21 122.77L0.48 120.2Z" id="a1UFHmjuqk"></path></defs><g><g><g><use xlink:href="#a1UFHmjuqk" opacity="1" fill="#fbb6ce" fill-opacity="1"></use><g><use xlink:href="#a1UFHmjuqk" opacity="1" fill-opacity="0" stroke="#000000" stroke-width="1" stroke-opacity="0"></use></g></g></g></g></svg>