<?xml version="1.0" encoding="UTF-8" standalone="no"?>
<!DOCTYPE svg PUBLIC "-//W3C//DTD SVG 1.1//EN" "http://www.w3.org/Graphics/SVG/1.1/DTD/svg11.dtd">
<svg version="1.1" xmlns="http://www.w3.org/2000/svg" xmlns:xlink="http://www.w3.org/1999/xlink" preserveAspectRatio="xMidYMid meet" viewBox="0 0 640 640" width="640" height="640"><defs><path d="M553.76 1.04L555.54 1.12L557.32 1.25L559.09 1.41L560.85 1.6L562.61 1.83L564.36 2.09L566.11 2.38L567.84 2.71L569.57 3.07L571.29 3.47L573 3.9L574.7 4.36L576.39 4.86L578.06 5.39L579.73 5.95L581.39 6.54L583.03 7.17L584.66 7.82L586.28 8.51L587.88 9.23L589.47 9.98L591.04 10.76L592.6 11.58L594.15 12.42L595.68 13.3L597.19 14.2L598.69 15.13L600.16 16.1L601.62 17.09L603.06 18.12L604.49 19.17L605.89 20.25L607.28 21.36L608.64 22.5L609.98 23.67L611.3 24.87L612.6 26.1L613.88 27.35L615.14 28.63L616.36 29.93L617.56 31.25L618.73 32.59L619.87 33.96L620.98 35.34L622.06 36.74L623.11 38.17L624.14 39.61L625.13 41.07L626.1 42.55L627.03 44.04L627.94 45.55L628.81 47.08L629.66 48.63L630.47 50.19L631.25 51.76L632 53.35L632.72 54.96L633.41 56.57L634.07 58.2L634.69 59.85L635.28 61.5L635.85 63.17L636.37 64.85L636.87 66.54L637.33 68.23L637.76 69.94L638.16 71.66L638.52 73.39L638.85 75.12L639.14 76.87L639.41 78.62L639.63 80.38L639.83 82.14L639.98 83.91L640.11 85.69L640.2 87.47L640.25 89.26L640.27 91.05L640.27 550.89L640.25 552.68L640.2 554.46L640.11 556.24L639.98 558.02L639.83 559.79L639.63 561.55L639.41 563.31L639.14 565.06L638.85 566.81L638.52 568.54L638.16 570.27L637.76 571.99L637.33 573.7L636.87 575.4L636.37 577.08L635.85 578.76L635.28 580.43L634.69 582.08L634.07 583.73L633.41 585.36L632.72 586.98L632 588.58L631.25 590.17L630.47 591.74L629.66 593.3L628.81 594.85L627.94 596.38L627.03 597.89L626.1 599.38L625.13 600.86L624.14 602.32L623.11 603.76L622.06 605.19L620.98 606.59L619.87 607.97L618.73 609.34L617.56 610.68L616.36 612L615.14 613.3L613.88 614.58L612.6 615.83L611.3 617.06L609.98 618.26L608.64 619.42L607.28 620.56L605.89 621.68L604.49 622.76L603.06 623.81L601.62 624.84L600.16 625.83L598.69 626.79L597.19 627.73L595.68 628.63L594.15 629.51L592.6 630.35L591.04 631.17L589.47 631.95L587.88 632.7L586.28 633.42L584.66 634.11L583.03 634.76L581.39 635.39L579.73 635.98L578.06 636.54L576.39 637.07L574.7 637.57L573 638.03L571.29 638.46L569.57 638.86L567.84 639.22L566.11 639.55L564.36 639.84L562.61 640.1L560.85 640.33L559.09 640.52L557.32 640.68L555.54 640.81L553.76 640.89L551.98 640.95L550.19 640.97L90.35 640.97L88.56 640.95L86.77 640.89L84.99 640.81L83.21 640.68L81.44 640.52L79.68 640.33L77.92 640.1L76.17 639.84L74.43 639.55L72.69 639.22L70.96 638.86L69.25 638.46L67.54 638.03L65.84 637.57L64.15 637.07L62.47 636.54L60.8 635.98L59.15 635.39L57.5 634.76L55.87 634.11L54.26 633.42L52.65 632.7L51.06 631.95L49.49 631.17L47.93 630.35L46.38 629.51L44.86 628.63L43.34 627.73L41.85 626.79L40.37 625.83L38.91 624.84L37.47 623.81L36.05 622.76L34.64 621.68L33.26 620.56L31.89 619.42L30.55 618.26L29.23 617.06L27.93 615.83L26.65 614.58L25.4 613.3L24.17 612L22.97 610.68L21.81 609.34L20.67 607.97L19.55 606.59L18.47 605.19L17.42 603.76L16.4 602.32L15.4 600.86L14.44 599.38L13.5 597.89L12.6 596.38L11.72 594.85L10.88 593.3L10.07 591.74L9.28 590.17L8.53 588.58L7.81 586.98L7.12 585.36L6.47 583.73L5.84 582.08L5.25 580.43L4.69 578.76L4.16 577.08L3.66 575.4L3.2 573.7L2.77 571.99L2.38 570.27L2.01 568.54L1.68 566.81L1.39 565.06L1.13 563.31L0.9 561.55L0.71 559.79L0.55 558.02L0.43 556.24L0.34 554.46L0.28 552.68L0.27 550.89L0.27 91.05L0.28 89.26L0.34 87.47L0.43 85.69L0.55 83.91L0.71 82.14L0.9 80.38L1.13 78.62L1.39 76.87L1.68 75.12L2.01 73.39L2.38 71.66L2.77 69.94L3.2 68.23L3.66 66.54L4.16 64.85L4.69 63.17L5.25 61.5L5.84 59.85L6.47 58.2L7.12 56.57L7.81 54.96L8.53 53.35L9.28 51.76L10.07 50.19L10.88 48.63L11.72 47.08L12.6 45.55L13.5 44.04L14.44 42.55L15.4 41.07L16.4 39.61L17.42 38.17L18.47 36.74L19.55 35.34L20.67 33.96L21.81 32.59L22.97 31.25L24.17 29.93L25.4 28.63L26.65 27.35L27.93 26.1L29.23 24.87L30.55 23.67L31.89 22.5L33.26 21.36L34.64 20.25L36.05 19.17L37.47 18.12L38.91 17.09L40.37 16.1L41.85 15.13L43.34 14.2L44.86 13.3L46.38 12.42L47.93 11.58L49.49 10.76L51.06 9.98L52.65 9.23L54.26 8.51L55.87 7.82L57.5 7.17L59.15 6.54L60.8 5.95L62.47 5.39L64.15 4.86L65.84 4.36L67.54 3.9L69.25 3.47L70.96 3.07L72.69 2.71L74.43 2.38L76.17 2.09L77.92 1.83L79.68 1.6L81.44 1.41L83.21 1.25L84.99 1.12L86.77 1.04L88.56 0.98L90.35 0.97L550.19 0.97L551.98 0.98L553.76 1.04ZM414.09 235.75L411.83 235.83L409.58 235.94L407.36 236.09L405.17 236.27L403 236.47L400.86 236.72L398.74 236.99L396.65 237.3L394.58 237.63L392.54 238L390.52 238.41L388.53 238.84L386.56 239.31L384.62 239.81L382.7 240.34L380.81 240.9L378.94 241.5L377.1 242.12L375.28 242.78L373.49 243.48L371.72 244.2L369.98 244.96L368.26 245.74L366.57 246.56L364.9 247.42L363.26 248.3L361.64 249.22L360.05 250.16L358.48 251.14L356.94 252.16L355.42 253.2L353.93 254.28L352.46 255.38L351.02 256.52L349.61 257.7L348.21 258.9L346.85 260.14L345.51 261.4L345.51 254.96L344.71 253.36L344.71 249.32L344.63 249.09L344.55 248.86L344.47 248.63L344.39 248.41L344.32 248.19L344.24 247.98L344.16 247.77L344.08 247.57L344 247.37L343.92 247.18L343.84 246.99L343.76 246.81L343.68 246.63L343.6 246.46L343.52 246.29L343.44 246.13L343.36 245.98L343.28 245.82L343.2 245.68L343.12 245.53L343.04 245.4L342.95 245.27L342.87 245.14L342.79 245.02L342.71 244.9L342.63 244.79L342.55 244.68L342.46 244.58L342.38 244.48L342.3 244.39L342.22 244.3L342.13 244.22L342.05 244.14L341.97 244.06L341.89 244L341.8 243.93L341.72 243.87L341.63 243.82L341.55 243.77L341.47 243.72L341.31 243.65L341.15 243.57L340.99 243.49L340.83 243.42L340.67 243.35L340.51 243.28L340.35 243.21L340.19 243.14L340.04 243.08L339.88 243.02L339.72 242.96L339.56 242.9L339.4 242.85L339.24 242.8L339.08 242.74L338.92 242.7L338.76 242.65L338.6 242.6L338.44 242.56L338.28 242.52L338.12 242.48L337.96 242.44L337.8 242.41L337.64 242.38L337.48 242.35L337.32 242.32L337.16 242.29L337 242.27L336.84 242.24L336.68 242.22L336.52 242.2L336.36 242.19L336.2 242.17L336.04 242.16L335.88 242.15L335.71 242.14L335.55 242.13L335.39 242.13L335.23 242.13L335.07 242.12L263.47 242.12L263.35 242.13L263.22 242.13L263.09 242.14L262.96 242.16L262.83 242.18L262.69 242.2L262.55 242.22L262.41 242.25L262.27 242.29L262.12 242.33L261.97 242.37L261.81 242.42L261.65 242.47L261.49 242.52L261.33 242.58L261.16 242.64L260.99 242.71L260.82 242.78L260.65 242.86L260.47 242.93L260.29 243.02L260.1 243.11L259.91 243.2L259.72 243.29L259.53 243.39L259.33 243.49L259.13 243.6L258.93 243.71L258.73 243.83L258.52 243.95L258.31 244.07L258.09 244.2L257.87 244.33L257.65 244.47L257.43 244.61L257.2 244.75L256.97 244.9L256.74 245.05L256.51 245.21L256.27 245.36L256.11 245.6L255.95 245.84L255.8 246.07L255.65 246.3L255.51 246.53L255.37 246.75L255.24 246.97L255.1 247.19L254.98 247.4L254.86 247.61L254.74 247.82L254.62 248.03L254.51 248.23L254.41 248.43L254.31 248.63L254.21 248.82L254.11 249.01L254.02 249.2L253.94 249.38L253.86 249.56L253.78 249.74L253.71 249.92L253.64 250.09L253.57 250.26L253.51 250.43L253.45 250.59L253.4 250.75L253.35 250.91L253.3 251.06L253.26 251.21L253.23 251.36L253.19 251.51L253.16 251.65L253.14 251.79L253.12 251.93L253.1 252.06L253.08 252.19L253.07 252.32L253.07 252.44L253.07 252.56L253.07 512.33L253.07 512.45L253.07 512.58L253.08 512.71L253.1 512.84L253.12 512.98L253.14 513.11L253.16 513.26L253.19 513.4L253.23 513.55L253.26 513.7L253.3 513.85L253.35 514.01L253.4 514.17L253.45 514.33L253.51 514.49L253.57 514.66L253.64 514.83L253.71 515L253.78 515.18L253.86 515.36L253.94 515.54L254.02 515.73L254.11 515.92L254.21 516.11L254.31 516.3L254.41 516.5L254.51 516.7L254.62 516.9L254.74 517.11L254.86 517.31L254.98 517.53L255.1 517.74L255.24 517.96L255.37 518.18L255.51 518.4L255.65 518.63L255.8 518.86L255.95 519.09L256.11 519.33L256.27 519.57L256.51 519.73L256.74 519.88L256.97 520.03L257.2 520.18L257.43 520.32L257.65 520.46L257.87 520.6L258.09 520.73L258.31 520.85L258.52 520.98L258.73 521.09L258.93 521.21L259.13 521.32L259.33 521.43L259.53 521.53L259.72 521.62L259.91 521.72L260.1 521.81L260.29 521.89L260.47 521.98L260.65 522.05L260.82 522.13L260.99 522.2L261.16 522.26L261.33 522.32L261.49 522.38L261.65 522.43L261.81 522.48L261.97 522.53L262.12 522.57L262.27 522.61L262.41 522.64L262.55 522.67L262.69 522.69L262.83 522.72L262.96 522.73L263.09 522.75L263.22 522.76L263.35 522.76L263.47 522.77L337.47 522.77L337.57 522.76L337.67 522.76L337.77 522.76L337.88 522.75L337.98 522.75L338.08 522.74L338.18 522.74L338.29 522.73L338.39 522.72L338.49 522.71L338.59 522.7L338.69 522.68L338.79 522.67L338.89 522.65L338.99 522.64L339.1 522.62L339.2 522.6L339.3 522.59L339.4 522.57L339.5 522.55L339.6 522.52L339.7 522.5L339.79 522.48L339.89 522.45L339.99 522.43L340.09 522.4L340.19 522.37L340.29 522.34L340.38 522.31L340.48 522.28L340.58 522.25L340.68 522.22L340.77 522.18L340.87 522.15L340.96 522.11L341.06 522.08L341.16 522.04L341.25 522L341.34 521.96L341.44 521.92L341.53 521.88L341.63 521.84L341.72 521.79L341.81 521.75L341.9 521.7L341.99 521.66L342.08 521.61L342.17 521.56L342.26 521.51L342.35 521.46L342.44 521.41L342.53 521.36L342.62 521.31L342.7 521.25L342.79 521.2L342.88 521.14L342.96 521.09L343.05 521.03L343.13 520.97L343.21 520.91L343.3 520.85L343.38 520.79L343.46 520.73L343.54 520.67L343.62 520.61L343.7 520.54L343.78 520.48L343.86 520.41L343.94 520.35L344.01 520.28L344.09 520.21L344.17 520.14L344.24 520.07L344.32 520L344.39 519.93L344.46 519.86L344.53 519.79L344.61 519.71L344.68 519.64L344.75 519.57L344.82 519.5L344.9 519.43L344.97 519.35L345.04 519.28L345.11 519.21L345.18 519.14L345.25 519.06L345.32 518.99L345.39 518.91L345.46 518.84L345.52 518.76L345.59 518.68L345.66 518.6L345.72 518.53L345.78 518.45L345.85 518.37L345.91 518.29L345.97 518.2L346.03 518.12L346.09 518.04L346.15 517.96L346.2 517.87L346.26 517.79L346.32 517.7L346.37 517.62L346.43 517.53L346.48 517.45L346.53 517.36L346.58 517.27L346.64 517.18L346.69 517.1L346.73 517.01L346.78 516.92L346.83 516.83L346.88 516.74L346.92 516.64L346.97 516.55L347.01 516.46L347.05 516.37L347.09 516.27L347.13 516.18L347.17 516.09L347.21 515.99L347.25 515.9L347.29 515.8L347.32 515.71L347.36 515.61L347.39 515.52L347.43 515.42L347.46 515.32L347.49 515.23L347.52 515.13L347.55 515.03L347.58 514.93L347.6 514.84L347.63 514.74L347.65 514.64L347.68 514.54L347.7 514.44L347.72 514.34L347.74 514.24L347.76 514.14L347.78 514.04L347.8 513.94L347.82 513.84L347.83 513.74L347.85 513.64L347.86 513.54L347.87 513.44L347.89 513.34L347.9 513.24L347.91 513.14L347.92 513.04L347.92 512.94L347.93 512.83L347.94 512.73L347.94 512.63L347.94 512.53L347.95 512.43L347.95 512.33L347.95 371.61L347.95 370.21L347.97 368.82L348.01 367.46L348.05 366.11L348.11 364.77L348.18 363.45L348.27 362.15L348.36 360.86L348.48 359.59L348.6 358.34L348.74 357.1L348.89 355.88L349.05 354.67L349.23 353.48L349.42 352.31L349.62 351.15L349.83 350.01L350.06 348.88L350.3 347.77L350.56 346.67L350.82 345.6L351.11 344.54L351.4 343.49L351.71 342.46L352.03 341.45L352.36 340.45L352.7 339.47L353.06 338.5L353.43 337.55L353.82 336.62L354.22 335.7L354.63 334.8L355.05 333.91L355.49 333.04L355.94 332.19L356.4 331.35L356.88 330.53L357.37 329.73L357.87 328.94L358.39 328.16L358.96 327.41L359.55 326.67L360.16 325.96L360.79 325.26L361.43 324.58L362.1 323.92L362.78 323.28L363.48 322.66L364.19 322.06L364.93 321.48L365.68 320.92L366.45 320.37L367.24 319.85L368.05 319.35L368.87 318.86L369.72 318.39L370.58 317.95L371.46 317.52L372.36 317.11L373.27 316.72L374.21 316.35L375.16 316L376.13 315.67L377.12 315.35L378.12 315.06L379.15 314.78L380.19 314.53L381.25 314.29L382.33 314.07L383.42 313.87L384.54 313.69L385.67 313.53L386.82 313.39L387.99 313.27L389.18 313.16L390.38 313.08L391.61 313.01L392.85 312.96L394.11 312.93L395.39 312.92L396.38 312.93L397.37 312.95L398.34 312.98L399.29 313.02L400.23 313.07L401.16 313.14L402.08 313.22L402.97 313.31L403.86 313.41L404.73 313.52L405.59 313.65L406.43 313.79L407.26 313.94L408.08 314.1L408.88 314.27L409.66 314.46L410.44 314.66L411.2 314.87L411.94 315.09L412.67 315.32L413.39 315.57L414.09 315.83L414.78 316.1L415.45 316.38L416.11 316.67L416.76 316.98L417.39 317.3L418.01 317.63L418.62 317.97L419.21 318.32L419.78 318.69L420.35 319.07L420.9 319.46L421.43 319.86L421.95 320.27L422.46 320.7L422.95 321.14L423.43 321.59L423.89 322.05L424.35 322.52L424.7 323.09L425.05 323.67L425.39 324.27L425.72 324.87L426.05 325.48L426.36 326.11L426.66 326.74L426.96 327.39L427.24 328.05L427.52 328.71L427.79 329.39L428.04 330.08L428.29 330.78L428.53 331.5L428.76 332.22L428.99 332.96L429.2 333.7L429.4 334.46L429.6 335.23L429.78 336L429.96 336.79L430.12 337.6L430.28 338.41L430.43 339.23L430.57 340.07L430.7 340.91L430.82 341.77L430.94 342.64L431.04 343.52L431.14 344.41L431.22 345.31L431.3 346.22L431.37 347.14L431.42 348.08L431.47 349.03L431.51 349.98L431.55 350.95L431.57 351.93L431.58 352.92L431.59 353.92L431.59 512.33L431.59 512.45L431.59 512.58L431.6 512.71L431.62 512.84L431.64 512.98L431.66 513.11L431.69 513.26L431.72 513.4L431.75 513.55L431.79 513.7L431.83 513.85L431.88 514.01L431.93 514.17L431.98 514.33L432.04 514.49L432.1 514.66L432.17 514.83L432.24 515L432.32 515.18L432.4 515.36L432.48 515.54L432.57 515.73L432.66 515.92L432.75 516.11L432.85 516.3L432.95 516.5L433.06 516.7L433.17 516.9L433.29 517.11L433.41 517.31L433.53 517.53L433.66 517.74L433.79 517.96L433.93 518.18L434.07 518.4L434.21 518.63L434.36 518.86L434.51 519.09L434.67 519.33L434.83 519.57L435.06 519.73L435.3 519.88L435.53 520.03L435.76 520.18L435.99 520.32L436.21 520.46L436.43 520.6L436.65 520.73L436.86 520.85L437.08 520.98L437.28 521.09L437.49 521.21L437.69 521.32L437.89 521.43L438.09 521.53L438.28 521.62L438.47 521.72L438.66 521.81L438.84 521.89L439.03 521.98L439.2 522.05L439.38 522.13L439.55 522.2L439.72 522.26L439.89 522.32L440.05 522.38L440.21 522.43L440.37 522.48L440.52 522.53L440.68 522.57L440.82 522.61L440.97 522.64L441.11 522.67L441.25 522.69L441.39 522.72L441.52 522.73L441.65 522.75L441.78 522.76L441.9 522.76L442.03 522.77L517.63 522.77L517.73 522.76L517.83 522.76L517.93 522.76L518.03 522.75L518.14 522.75L518.24 522.74L518.34 522.73L518.44 522.72L518.54 522.71L518.64 522.7L518.75 522.69L518.85 522.68L518.95 522.67L519.05 522.65L519.15 522.63L519.25 522.62L519.35 522.6L519.45 522.58L519.55 522.56L519.65 522.54L519.75 522.52L519.85 522.5L519.94 522.47L520.04 522.45L520.14 522.42L520.24 522.39L520.34 522.37L520.43 522.34L520.53 522.31L520.63 522.28L520.72 522.24L520.82 522.21L520.92 522.18L521.01 522.14L521.11 522.11L521.2 522.07L521.3 522.03L521.39 521.99L521.48 521.95L521.58 521.91L521.67 521.87L521.76 521.83L521.86 521.78L521.95 521.74L522.04 521.69L522.13 521.65L522.22 521.6L522.31 521.55L522.4 521.5L522.49 521.45L522.57 521.4L522.66 521.35L522.75 521.3L522.84 521.24L522.92 521.19L523.01 521.14L523.09 521.08L523.18 521.02L523.26 520.96L523.34 520.91L523.42 520.85L523.51 520.79L523.59 520.72L523.67 520.66L523.75 520.6L523.83 520.54L523.91 520.47L523.98 520.41L524.06 520.34L524.14 520.27L524.21 520.21L524.29 520.14L524.36 520.07L524.44 520L524.51 519.93L524.58 519.86L524.65 519.79L524.73 519.71L524.8 519.64L524.87 519.57L524.94 519.5L525.01 519.43L525.09 519.35L525.16 519.28L525.23 519.21L525.3 519.14L525.37 519.06L525.44 518.99L525.51 518.91L525.58 518.84L525.64 518.76L525.71 518.68L525.78 518.6L525.84 518.53L525.9 518.45L525.97 518.37L526.03 518.29L526.09 518.2L526.15 518.12L526.21 518.04L526.27 517.96L526.33 517.87L526.38 517.79L526.44 517.7L526.49 517.62L526.55 517.53L526.6 517.45L526.65 517.36L526.71 517.27L526.76 517.18L526.81 517.1L526.86 517.01L526.9 516.92L526.95 516.83L527 516.74L527.04 516.64L527.09 516.55L527.13 516.46L527.17 516.37L527.21 516.27L527.24 516.21L527.27 516.15L527.3 516.08L527.32 516.01L527.35 515.94L527.37 515.87L527.4 515.79L527.42 515.72L527.45 515.64L527.47 515.56L527.5 515.48L527.52 515.4L527.55 515.31L527.57 515.22L527.59 515.13L527.62 515.04L527.64 514.95L527.66 514.86L527.68 514.76L527.7 514.66L527.72 514.56L527.74 514.46L527.77 514.36L527.79 514.25L527.81 514.15L527.83 514.04L527.84 513.93L527.86 513.82L527.88 513.7L527.9 513.59L527.92 513.47L527.94 513.35L527.95 513.23L527.97 513.1L527.99 512.98L528 512.85L528.02 512.72L528.04 512.59L528.05 512.46L528.07 512.33L528.07 337L528.05 334.53L527.99 332.08L527.9 329.66L527.78 327.28L527.61 324.92L527.42 322.58L527.18 320.28L526.91 318.01L526.6 315.76L526.26 313.55L525.88 311.36L525.46 309.2L525.01 307.07L524.52 304.97L524 302.9L523.44 300.86L522.84 298.85L522.21 296.87L521.54 294.91L520.83 292.98L520.09 291.09L519.31 289.22L518.5 287.38L517.65 285.57L516.76 283.79L515.84 282.04L514.88 280.32L513.88 278.63L512.85 276.97L511.78 275.33L510.68 273.73L509.54 272.15L508.36 270.61L507.15 269.09L505.9 267.6L504.61 266.14L503.29 264.72L501.93 263.32L500.54 261.95L499.11 260.6L497.68 259.38L496.23 258.18L494.75 257.01L493.24 255.87L491.69 254.77L490.12 253.69L488.52 252.65L486.89 251.64L485.22 250.66L483.53 249.71L481.8 248.79L480.05 247.9L478.27 247.05L476.45 246.22L474.61 245.43L472.73 244.66L470.83 243.93L468.9 243.23L466.93 242.56L464.94 241.92L462.91 241.31L460.86 240.74L458.77 240.19L456.65 239.68L454.51 239.19L452.33 238.74L450.13 238.32L447.89 237.93L445.62 237.57L443.33 237.24L441 236.95L438.64 236.68L436.26 236.45L433.84 236.25L431.39 236.07L428.92 235.93L426.41 235.83L423.87 235.75L421.3 235.7L418.71 235.68L416.39 235.7L414.09 235.75ZM129.06 242.13L128.94 242.13L128.8 242.14L128.67 242.16L128.54 242.18L128.4 242.2L128.26 242.22L128.11 242.25L127.96 242.29L127.81 242.33L127.66 242.37L127.5 242.42L127.35 242.47L127.18 242.52L127.02 242.58L126.85 242.64L126.68 242.71L126.51 242.78L126.33 242.86L126.15 242.93L125.97 243.02L125.78 243.11L125.6 243.2L125.41 243.29L125.21 243.39L125.01 243.49L124.81 243.6L124.61 243.71L124.41 243.83L124.2 243.95L123.99 244.07L123.77 244.2L123.55 244.33L123.33 244.47L123.11 244.61L122.88 244.75L122.65 244.9L122.42 245.05L122.19 245.21L121.95 245.36L121.79 245.6L121.64 245.84L121.49 246.07L121.34 246.3L121.2 246.53L121.06 246.75L120.93 246.97L120.8 247.19L120.67 247.4L120.55 247.61L120.43 247.82L120.32 248.03L120.21 248.23L120.1 248.43L120 248.63L119.9 248.82L119.81 249.01L119.72 249.2L119.63 249.38L119.55 249.56L119.47 249.74L119.4 249.92L119.33 250.09L119.26 250.26L119.2 250.43L119.14 250.59L119.09 250.75L119.04 250.91L118.99 251.06L118.95 251.21L118.91 251.36L118.88 251.51L118.85 251.65L118.82 251.79L118.8 251.93L118.78 252.06L118.76 252.19L118.75 252.32L118.75 252.44L118.75 252.56L118.75 512.33L118.75 512.45L118.75 512.58L118.76 512.71L118.78 512.84L118.8 512.98L118.82 513.11L118.85 513.26L118.88 513.4L118.91 513.55L118.95 513.7L118.99 513.85L119.04 514.01L119.09 514.17L119.14 514.33L119.2 514.49L119.27 514.66L119.33 514.83L119.4 515L119.48 515.18L119.56 515.36L119.64 515.54L119.73 515.73L119.82 515.92L119.91 516.11L120.01 516.3L120.12 516.5L120.22 516.7L120.33 516.9L120.45 517.11L120.57 517.31L120.69 517.53L120.82 517.74L120.95 517.96L121.09 518.18L121.23 518.4L121.37 518.63L121.52 518.86L121.67 519.09L121.83 519.33L121.99 519.57L122.23 519.73L122.46 519.88L122.69 520.03L122.92 520.18L123.15 520.32L123.37 520.46L123.59 520.6L123.81 520.73L124.03 520.85L124.24 520.98L124.45 521.09L124.65 521.21L124.85 521.32L125.05 521.43L125.25 521.53L125.44 521.62L125.63 521.72L125.82 521.81L126.01 521.89L126.19 521.98L126.37 522.05L126.54 522.13L126.71 522.2L126.88 522.26L127.05 522.32L127.21 522.38L127.37 522.43L127.53 522.48L127.69 522.53L127.84 522.57L127.99 522.61L128.13 522.64L128.27 522.67L128.41 522.69L128.55 522.72L128.68 522.73L128.81 522.75L128.94 522.76L129.07 522.76L129.19 522.77L203.19 522.77L203.31 522.76L203.43 522.76L203.56 522.75L203.69 522.73L203.83 522.72L203.96 522.69L204.1 522.67L204.25 522.64L204.39 522.61L204.54 522.57L204.7 522.53L204.85 522.48L205.01 522.43L205.17 522.38L205.34 522.32L205.5 522.26L205.68 522.2L205.85 522.13L206.03 522.05L206.21 521.98L206.39 521.89L206.58 521.81L206.76 521.72L206.96 521.62L207.15 521.53L207.35 521.43L207.55 521.32L207.75 521.21L207.96 521.09L208.17 520.98L208.38 520.85L208.6 520.73L208.82 520.6L209.04 520.46L209.26 520.32L209.49 520.18L209.72 520.03L209.95 519.88L210.19 519.73L210.43 519.57L210.53 519.4L210.64 519.24L210.74 519.07L210.84 518.91L210.94 518.74L211.04 518.58L211.14 518.41L211.23 518.24L211.33 518.07L211.42 517.9L211.51 517.73L211.61 517.55L211.7 517.38L211.78 517.2L211.87 517.03L211.96 516.85L212.04 516.67L212.12 516.5L212.21 516.32L212.29 516.14L212.37 515.95L212.44 515.77L212.52 515.59L212.6 515.4L212.67 515.22L212.74 515.03L212.82 514.84L212.89 514.66L212.95 514.47L213.02 514.28L213.09 514.09L213.15 513.89L213.22 513.7L213.28 513.51L213.34 513.31L213.4 513.12L213.46 512.92L213.52 512.72L213.57 512.52L213.63 512.33L213.63 252.56L213.62 252.44L213.62 252.31L213.61 252.18L213.59 252.05L213.58 251.91L213.55 251.78L213.53 251.63L213.5 251.49L213.46 251.34L213.42 251.19L213.38 251.04L213.34 250.88L213.28 250.72L213.23 250.56L213.17 250.4L213.11 250.23L213.04 250.06L212.97 249.89L212.9 249.71L212.82 249.53L212.73 249.35L212.65 249.16L212.56 248.97L212.46 248.78L212.36 248.59L212.26 248.39L212.15 248.19L212.04 247.99L211.92 247.78L211.8 247.58L211.68 247.36L211.55 247.15L211.42 246.93L211.29 246.71L211.15 246.49L211 246.26L210.85 246.03L210.7 245.8L210.55 245.56L210.39 245.32L210.15 245.17L209.91 245.01L209.68 244.87L209.45 244.72L209.22 244.58L209 244.44L208.78 244.31L208.56 244.18L208.35 244.05L208.14 243.93L207.93 243.81L207.72 243.7L207.52 243.59L207.32 243.48L207.12 243.38L206.93 243.28L206.74 243.19L206.55 243.1L206.37 243.01L206.19 242.93L206.01 242.85L205.83 242.78L205.66 242.71L205.49 242.64L205.32 242.58L205.16 242.52L205 242.47L204.84 242.42L204.69 242.37L204.54 242.33L204.39 242.29L204.24 242.25L204.1 242.22L203.96 242.2L203.82 242.18L203.69 242.16L203.56 242.14L203.43 242.13L203.31 242.13L203.19 242.12L129.19 242.12L129.06 242.13ZM165.19 112.65L164.7 112.66L164.2 112.68L163.7 112.71L163.21 112.73L162.71 112.77L162.22 112.8L161.73 112.85L161.23 112.89L160.74 112.95L160.25 113.01L159.76 113.07L159.27 113.14L158.78 113.21L158.29 113.29L157.8 113.37L157.31 113.46L156.83 113.55L156.34 113.65L155.86 113.75L155.38 113.86L154.89 113.97L154.41 114.09L153.93 114.21L153.46 114.34L152.98 114.47L152.5 114.61L152.03 114.75L151.56 114.89L151.08 115.05L150.61 115.2L150.14 115.36L149.68 115.53L149.21 115.7L148.75 115.88L148.29 116.06L147.82 116.24L147.37 116.43L146.91 116.63L146.45 116.83L146 117.03L145.55 117.24L145.1 117.45L144.65 117.67L144.21 117.89L143.77 118.12L143.33 118.35L142.89 118.58L142.46 118.82L142.03 119.07L141.6 119.31L141.17 119.57L140.75 119.82L140.33 120.08L139.91 120.35L139.5 120.62L139.09 120.89L138.68 121.17L138.27 121.45L137.87 121.74L137.47 122.03L137.07 122.32L136.67 122.62L136.28 122.92L135.89 123.23L135.51 123.54L135.12 123.85L134.74 124.17L134.37 124.49L133.99 124.82L133.63 125.15L133.26 125.48L132.9 125.82L132.54 126.16L132.18 126.51L131.83 126.86L131.48 127.21L131.13 127.56L130.79 127.93L130.07 128.65L129.38 129.39L128.7 130.13L128.04 130.87L127.4 131.63L126.77 132.39L126.17 133.16L125.58 133.93L125.01 134.72L124.46 135.51L123.92 136.3L123.41 137.11L122.91 137.92L122.43 138.74L121.97 139.56L121.53 140.4L121.1 141.23L120.69 142.08L120.3 142.93L119.93 143.8L119.58 144.66L119.24 145.54L118.93 146.42L118.63 147.31L118.35 148.2L118.08 149.11L117.84 150.02L117.61 150.93L117.4 151.86L117.21 152.79L117.04 153.73L116.89 154.67L116.75 155.62L116.63 156.58L116.53 157.55L116.45 158.52L116.39 159.5L116.34 160.49L116.32 161.48L116.31 162.49L116.3 162.98L116.3 163.47L116.3 163.96L116.31 164.46L116.32 164.95L116.34 165.44L116.36 165.93L116.39 166.42L116.42 166.91L116.46 167.4L116.5 167.89L116.55 168.38L116.6 168.87L116.66 169.36L116.72 169.84L116.79 170.33L116.86 170.82L116.94 171.3L117.02 171.79L117.11 172.27L117.2 172.75L117.3 173.23L117.4 173.71L117.51 174.19L117.62 174.67L117.74 175.15L117.86 175.62L117.98 176.1L118.11 176.57L118.25 177.04L118.39 177.51L118.54 177.98L118.69 178.45L118.84 178.92L119 179.38L119.17 179.85L119.34 180.31L119.51 180.77L119.69 181.23L119.88 181.69L120.07 182.14L120.26 182.59L120.46 183.05L120.66 183.49L120.87 183.94L121.08 184.39L121.3 184.83L121.52 185.27L121.74 185.7L121.97 186.14L122.21 186.57L122.44 187L122.69 187.43L122.93 187.85L123.18 188.27L123.44 188.69L123.7 189.11L123.96 189.52L124.23 189.94L124.5 190.34L124.78 190.75L125.06 191.15L125.34 191.55L125.63 191.95L125.92 192.34L126.22 192.74L126.52 193.12L126.83 193.51L127.13 193.89L127.45 194.27L127.76 194.65L128.08 195.02L128.41 195.39L128.74 195.76L129.07 196.12L129.41 196.48L129.74 196.84L130.09 197.19L130.44 197.54L130.79 197.89L131.52 198.6L132.25 199.3L133 199.98L133.75 200.64L134.51 201.29L135.28 201.91L136.06 202.52L136.85 203.11L137.64 203.68L138.44 204.23L139.25 204.77L140.06 205.28L140.89 205.78L141.72 206.26L142.56 206.72L143.41 207.16L144.27 207.59L145.13 208L146 208.38L146.88 208.76L147.77 209.11L148.67 209.44L149.57 209.76L150.48 210.06L151.4 210.34L152.33 210.6L153.27 210.84L154.21 211.07L155.17 211.27L156.13 211.46L157.1 211.64L158.07 211.79L159.06 211.92L160.05 212.04L161.05 212.14L162.06 212.22L163.08 212.28L164.11 212.33L165.14 212.36L166.19 212.37L166.68 212.37L167.17 212.37L167.67 212.37L168.16 212.36L168.65 212.35L169.14 212.33L169.63 212.31L170.12 212.28L170.61 212.25L171.1 212.21L171.59 212.17L172.08 212.12L172.57 212.07L173.06 212.01L173.55 211.95L174.03 211.88L174.52 211.81L175 211.73L175.49 211.65L175.97 211.56L176.45 211.47L176.93 211.37L177.41 211.27L177.89 211.16L178.37 211.05L178.85 210.93L179.32 210.81L179.8 210.69L180.27 210.55L180.74 210.42L181.21 210.28L181.68 210.13L182.15 209.98L182.62 209.82L183.08 209.66L183.55 209.5L184.01 209.33L184.47 209.15L184.93 208.97L185.39 208.79L185.84 208.6L186.29 208.41L186.75 208.21L187.19 208.01L187.64 207.8L188.09 207.59L188.53 207.37L188.97 207.15L189.4 206.93L189.84 206.7L190.27 206.46L190.7 206.23L191.13 205.98L191.55 205.74L191.97 205.49L192.39 205.23L192.81 204.97L193.22 204.71L193.64 204.44L194.04 204.17L194.45 203.89L194.85 203.61L195.25 203.33L195.65 203.04L196.04 202.75L196.44 202.45L196.82 202.15L197.21 201.84L197.59 201.54L197.97 201.22L198.35 200.91L198.72 200.59L199.09 200.26L199.46 199.93L199.82 199.6L200.18 199.27L200.54 198.93L200.89 198.58L201.24 198.24L201.59 197.89L202.3 197.16L203 196.42L203.67 195.68L204.33 194.93L204.98 194.17L205.6 193.4L206.2 192.63L206.79 191.84L207.36 191.05L207.91 190.25L208.44 189.44L208.96 188.63L209.45 187.8L209.93 186.97L210.39 186.13L210.83 185.28L211.26 184.42L211.66 183.56L212.05 182.69L212.42 181.81L212.77 180.92L213.11 180.02L213.42 179.11L213.72 178.2L214 177.28L214.26 176.35L214.5 175.41L214.73 174.47L214.94 173.51L215.13 172.55L215.3 171.58L215.45 170.6L215.59 169.62L215.7 168.62L215.8 167.62L215.88 166.61L215.95 165.59L215.99 164.56L216.02 163.53L216.03 162.49L216.02 161.49L215.99 160.49L215.95 159.51L215.88 158.53L215.8 157.56L215.7 156.59L215.58 155.63L215.45 154.68L215.29 153.74L215.12 152.8L214.93 151.87L214.72 150.94L214.5 150.02L214.25 149.11L213.99 148.21L213.71 147.31L213.41 146.42L213.09 145.54L212.76 144.66L212.41 143.8L212.04 142.93L211.65 142.08L211.24 141.23L210.82 140.39L210.37 139.56L209.91 138.73L209.44 137.91L208.94 137.1L208.43 136.29L207.89 135.5L207.34 134.71L206.78 133.92L206.19 133.15L205.59 132.38L204.96 131.62L204.32 130.86L203.67 130.12L202.99 129.38L202.3 128.65L201.59 127.93L201.24 127.56L200.9 127.21L200.55 126.86L200.19 126.51L199.84 126.16L199.48 125.82L199.11 125.48L198.75 125.15L198.38 124.82L198.01 124.49L197.63 124.17L197.25 123.85L196.87 123.54L196.48 123.23L196.09 122.92L195.7 122.62L195.31 122.32L194.91 122.03L194.51 121.74L194.1 121.45L193.7 121.17L193.29 120.89L192.88 120.62L192.46 120.35L192.04 120.08L191.62 119.82L191.2 119.57L190.77 119.31L190.34 119.07L189.91 118.82L189.48 118.58L189.04 118.35L188.6 118.12L188.16 117.89L187.72 117.67L187.27 117.45L186.83 117.24L186.37 117.03L185.92 116.83L185.47 116.63L185.01 116.43L184.55 116.24L184.09 116.06L183.63 115.88L183.16 115.7L182.7 115.53L182.23 115.36L181.76 115.2L181.29 115.05L180.82 114.89L180.34 114.75L179.87 114.61L179.39 114.47L178.92 114.34L178.44 114.21L177.96 114.09L177.48 113.97L177 113.86L176.51 113.75L176.03 113.65L175.54 113.55L175.06 113.46L174.57 113.37L174.08 113.29L173.6 113.21L173.11 113.14L172.62 113.07L172.12 113.01L171.63 112.95L171.14 112.89L170.65 112.85L170.15 112.8L169.66 112.77L169.16 112.73L168.67 112.71L168.17 112.68L167.68 112.66L167.18 112.65L166.68 112.64L166.19 112.64L165.69 112.64L165.19 112.65Z" id="buLeIBgOa"></path></defs><g><g><g><use xlink:href="#buLeIBgOa" opacity="1" fill="#fbb6ce" fill-opacity="1"></use><g><use xlink:href="#buLeIBgOa" opacity="1" fill-opacity="0" stroke="#000000" stroke-width="1" stroke-opacity="0"></use></g></g></g></g></svg>