<?xml version="1.0"?>
<svg xmlns="http://www.w3.org/2000/svg" xmlns:xlink="http://www.w3.org/1999/xlink" version="1.1" id="Capa_1" x="0px" y="0px" viewBox="0 0 512 512" style="enable-background:new 0 0 512 512;" xml:space="preserve" width="512px" height="512px"><g><g>
	<g>
		<path d="M369.025,235.105c17.031-14.694,30.476-33.699,38.434-55.734c5.262-14.568,7.93-29.871,7.93-45.483    C415.388,60.062,355.326,0,281.5,0h-216c-11.046,0-20,8.954-20,20v472c0,11.046,8.954,20,20,20h259.303    c21.992,0,44.001-4.558,61.973-12.834c10.033-4.62,14.421-16.499,9.801-26.531c-4.621-10.033-16.498-14.425-26.532-9.801    c-12.836,5.911-28.903,9.166-45.242,9.166H85.5V40h196c51.77,0,93.888,42.118,93.888,93.888c0,10.966-1.868,21.697-5.551,31.896    c-13.391,37.08-48.891,61.993-88.337,61.993c-0.965,0-1.906,0.092-2.834,0.224H165.5c-11.046,0-20,8.954-20,20s8.954,20,20,20    h159.303c56.076,0,101.697,45.894,101.697,102.304c0,11.633-1.67,22.515-4.963,32.341c-3.51,10.473,2.135,21.809,12.608,25.318    c2.108,0.707,4.251,1.043,6.358,1.043c8.361,0,16.157-5.285,18.961-13.65c4.669-13.932,7.037-29.089,7.037-45.052    C466.5,307.34,425.567,253.805,369.025,235.105z" data-original="#000000" class="active-path" data-old_color="#000000" fill="#ED64A6"/>
	</g>
</g></g> </svg>
